<?xml version="1.0" encoding="utf-8"?>
<!-- Svg Vector Icons : http://www.onlinewebfonts.com/icon -->
<!DOCTYPE svg PUBLIC "-//W3C//DTD SVG 1.1//EN" "http://www.w3.org/Graphics/SVG/1.1/DTD/svg11.dtd">
<svg version="1.1" xmlns="http://www.w3.org/2000/svg" xmlns:xlink="http://www.w3.org/1999/xlink" x="0px" y="0px" viewBox="0 0 1000 1000" enable-background="new 0 0 1000 1000" xml:space="preserve">
<metadata> Svg Vector Icons : http://www.onlinewebfonts.com/icon </metadata>
<g><path d="M559.3,69.9c13.4,34.7,13,69.8,9.6,105c-8.5,88.1,1.8,175.1,47.3,260c3.3,6.2,7.3,12.2,11.6,19.4c51.1-35.4,101-70,152.5-105.7c3,11.2,5.6,21,8.3,30.9c17.5,63.5,50.7,124.4,89.7,184.4c26.4,40.6,53.3,81.1,76.3,122.3c49.9,89.5,9.6,168-93.8,237.7c-30.9,20.8-67.3,38-108.3,51.8c-3.3,1.1-6.8,2.1-11.4,3.5c8.5-8.6,16.7-16.2,23.9-24c30.9-33.6,30.2-68.4,9.6-103.5c-16.2-27.5-34.4-54.5-51.6-81.9c-19.6-31.4-34-63.5-41.3-96.6c-0.2-0.8-0.8-1.6-1.8-3.5c-28.6,19.8-56.2,38.9-85.7,59.3c-23.3-23.1-46.7-44.9-67.8-67.5c-39-41.6-70.1-85.1-86.3-131.8c-7.4-21.4-10.6-42.9-7.9-64.7c0.2-1.7,0.4-3.3,0.4-5c-5,1.4-8.2,4.1-11,6.9c-53,51.9-101.1,105.3-135,162.5c-24.4,41.2-38.8,83.7-47.3,126.9c-6.8,34.8-8.7,69.7-2.1,104.6c8.5,44.4,28.8,86.4,79.5,121.7c3.7,2.6,7.6,5,11.4,7.6c-23.7-4.5-46.5-10-67.9-16.9c-115.2-37-181.6-94.9-213.8-167.3C24.6,757,20.8,707.2,26.3,657.1c7.5-66.9,32.7-131.8,66.5-195.9c40-75.6,108-142.4,188.9-205.3c49.6-38.6,99.9-76.9,148.4-115.9c38.1-30.6,67.4-64,81.7-101.2c3.5-9.2,5.1-18.6,7.8-28.8C538.8,29.1,551.2,49,559.3,69.9z"/></g>
</svg>